<svg width="141" height="115" viewBox="0 0 141 115" fill="none" xmlns="http://www.w3.org/2000/svg">
<path d="M137.047 48.3935C136.34 46.2511 135.671 44.4412 135.151 42.5574C134.817 41.3754 134.148 41.043 132.996 41.0799C129.353 41.2277 125.674 41.043 122.069 41.4863C118.463 41.9295 116.01 40.8583 114.375 37.6448C113.892 36.6845 113.074 35.8349 112.368 34.9854C111.402 33.8403 111.216 32.6953 111.773 31.2547C113.372 27.1917 114.747 23.0547 116.345 18.9547C116.865 17.625 116.605 16.8124 115.416 16.0367C113.223 14.5592 111.179 12.9709 109.06 11.4935C106.087 9.46193 106.905 9.31419 103.931 11.5304C100.661 13.9682 97.39 16.3691 94.1565 18.8809C93.1158 19.6935 92.1123 19.8043 90.8858 19.361C88.916 18.6223 86.9462 17.8836 84.902 17.4403C83.1552 17.034 82.3375 16.0367 81.8915 14.4115C80.7022 10.2745 79.3642 6.17455 78.1749 2.03761C77.8404 0.855627 77.2457 0.264636 76.0192 0.227699C72.9715 0.190762 69.961 0.190762 66.9506 0.0430145C65.2781 -0.0308594 64.3489 0.560132 63.8657 2.22229C62.7507 6.24842 61.4127 10.2007 60.2606 14.2268C59.8146 15.8151 59.0712 16.7385 57.3616 17.1079C55.2059 17.5881 53.0503 18.2529 51.0061 19.0655C49.5938 19.6196 48.5531 19.361 47.4381 18.5115C43.7958 15.7412 40.1163 13.0448 36.5112 10.2376C35.5448 9.49887 34.8015 9.49887 33.8723 10.2007C31.2707 12.0845 28.6318 13.9313 25.993 15.7043C24.878 16.443 24.8409 17.2187 25.2869 18.3637C26.9222 22.6115 28.4832 26.8962 29.9327 31.1809C30.1928 31.9565 29.9327 33.1385 29.4867 33.8403C28.1487 35.9088 26.5133 37.7926 25.1382 39.8241C24.3205 41.0061 23.3542 41.4863 21.9047 41.4124C17.3332 41.2277 12.7617 41.1169 8.15307 41.0799C7.52124 41.0799 6.51775 41.3754 6.33191 41.8187C5.47708 43.8872 4.84525 46.0295 4.02759 48.3935C5.03108 48.3935 5.70008 48.3935 6.40625 48.3935C13.2077 48.3935 20.0464 48.2457 26.8478 48.4673C29.5238 48.5412 31.3078 48.0241 32.1998 45.3646C32.4972 44.5151 33.1662 43.7763 33.6493 43.0376C44.8736 25.825 67.8797 18.8808 86.8718 26.8592C96.721 30.9962 104.117 37.7187 109.209 47.0637C109.506 47.6547 110.324 48.3565 110.881 48.3565C119.467 48.4304 128.09 48.3935 137.047 48.3935Z" fill="white"/>
<path d="M137.047 48.3935C128.052 48.3935 119.467 48.4304 110.844 48.3196C110.287 48.3196 109.469 47.6178 109.172 47.0268C104.08 37.6818 96.6839 30.9592 86.8348 26.8223C67.8798 18.8809 44.8737 25.825 33.5751 43.0007C33.0548 43.7764 32.3858 44.4782 32.1256 45.3277C31.2336 47.9872 29.4496 48.5412 26.7736 48.4304C19.9722 48.2088 13.1707 48.3565 6.33203 48.3565C5.66303 48.3565 4.99403 48.3565 3.95337 48.3565C4.73387 46.0295 5.3657 43.8502 6.2577 41.7818C6.44353 41.3385 7.44702 41.043 8.07886 41.043C12.6503 41.08 17.259 41.1908 21.8305 41.3755C23.3171 41.4493 24.2463 40.9691 25.064 39.7872C26.4763 37.7556 28.0745 35.8718 29.4125 33.8034C29.8585 33.1016 30.1186 31.9196 29.8585 31.1439C28.409 26.8223 26.8108 22.5746 25.2126 18.3268C24.7666 17.1818 24.841 16.4061 25.9188 15.6673C28.5948 13.8944 31.1964 12.0106 33.7981 10.1637C34.7273 9.49888 35.4706 9.46194 36.4369 10.2007C40.0421 13.0079 43.7587 15.7043 47.3639 18.4746C48.4789 19.3241 49.5196 19.6196 50.9319 19.0286C52.976 18.216 55.1317 17.5511 57.2874 17.0709C58.997 16.7016 59.7404 15.7782 60.1864 14.1899C61.3014 10.1637 62.6393 6.21149 63.7915 2.18537C64.2747 0.523205 65.2038 -0.0677857 66.8763 0.0060882C69.8868 0.153836 72.9345 0.153836 75.945 0.190773C77.2086 0.190773 77.7661 0.781764 78.1006 2.00068C79.29 6.13762 80.628 10.2376 81.8173 14.3746C82.2633 15.9998 83.081 16.9971 84.8278 17.4034C86.8719 17.8836 88.8418 18.5854 90.8116 19.3241C92.0381 19.8043 93.0416 19.6565 94.0822 18.8439C97.3157 16.3691 100.586 13.9313 103.857 11.4935C106.83 9.27726 106.05 9.425 108.986 11.4565C111.105 12.934 113.186 14.5223 115.342 15.9259C116.531 16.7016 116.791 17.5142 116.271 18.8439C114.71 22.907 113.297 27.0439 111.699 31.1439C111.142 32.5845 111.328 33.7295 112.294 34.8746C113 35.7241 113.781 36.5737 114.301 37.534C115.936 40.7475 118.389 41.8187 121.994 41.3755C125.599 40.9322 129.279 41.1169 132.921 40.9691C134.073 40.9322 134.742 41.3016 135.077 42.4466C135.709 44.4412 136.378 46.2511 137.047 48.3935Z" fill="#FF3811"/>
<path d="M99.2854 60.8781C94.8997 56.5565 90.4769 52.1979 86.0541 47.8024C85.2736 47.0268 84.7904 47.5439 84.2329 48.0979C82.1516 50.2033 80.0703 52.3087 77.9518 54.3403C76.6138 55.6331 75.1643 56.8889 73.752 58.1448C73.8635 58.3295 73.975 58.4772 74.0864 58.6619C78.2119 57.8493 81.8171 58.6988 84.7904 61.6168C87.7266 64.5349 88.5071 68.1916 87.7637 72.1439C91.6291 68.3763 95.3829 64.6826 99.2854 60.8781Z" fill="white"/>
<path d="M67.2481 58.4403C66.6906 57.8123 66.4305 57.406 66.096 57.0736C63.1226 54.1186 60.075 51.2375 57.176 48.2087C56.1353 47.1375 55.5035 47.1745 54.5 48.2087C50.6347 52.124 46.7694 55.9655 42.7925 59.77C41.7891 60.7303 42.012 61.3213 42.8669 62.1709C45.9889 65.2366 49.0737 68.3393 52.1957 71.4051C52.4559 71.6637 52.8275 71.8114 53.2735 72.1069C51.9727 63.2421 58.2167 57.1475 67.2481 58.4403Z" fill="white"/>
<path d="M52.7903 43.9609C48.0702 48.7257 43.4987 53.3798 38.9644 57.96C39.2989 58.4032 39.7449 59.0311 40.1537 59.5483C44.9482 54.7834 49.5568 50.2402 54.4628 45.4014C53.9425 44.9582 53.3478 44.4411 52.7903 43.9609Z" fill="white"/>
<path d="M105.53 54.7836C105.418 54.5989 105.344 54.3773 105.195 54.1926C100.995 50.0187 96.8327 45.8818 92.6329 41.7079C91.9267 41.0061 91.4064 40.9692 90.6259 41.7079C89.8082 42.5205 89.9569 43.0746 90.7002 43.8133C94.454 47.4701 98.1335 51.1637 101.85 54.8574C102.445 55.4484 103.077 56.0025 103.932 56.8151C104.489 56.1133 104.935 55.5592 105.53 54.7836Z" fill="white"/>
<path d="M102.556 57.7384C98.2449 53.4537 94.0079 49.2799 89.7709 45.0321C89.0648 44.3303 88.4701 43.7763 87.5038 44.8105C86.5746 45.8078 87.0949 46.3988 87.8383 47.1006C91.6293 50.8312 95.3831 54.5618 99.1369 58.2925C100.809 59.9916 100.847 59.9916 102.556 57.7384Z" fill="white"/>
<path d="M51.2292 42.5943C49.5567 40.5627 49.5939 40.5627 47.8099 42.2988C44.1676 45.9186 40.5252 49.5015 36.9201 53.1213C35.1733 54.8573 35.2104 55.0789 37.2917 56.2609C41.9376 51.7177 46.5462 47.1744 51.2292 42.5943Z" fill="white"/>
<path d="M99.2854 60.878C95.3829 64.7195 91.6291 68.3762 87.7637 72.1807C88.5071 68.2285 87.7266 64.6087 84.7904 61.6537C81.8171 58.6988 78.1748 57.8861 74.0864 58.6988C73.975 58.5141 73.8635 58.3663 73.752 58.1816C75.1643 56.9258 76.5766 55.7069 77.9518 54.3771C80.0703 52.3087 82.1516 50.2402 84.2329 48.1348C84.7904 47.5807 85.2736 47.0636 86.0541 47.8393C90.4769 52.1609 94.8997 56.5195 99.2854 60.878ZM89.1389 54.8942C88.3584 55.9285 87.4292 56.6303 87.5036 57.1474C87.6151 57.7753 88.5814 58.2924 89.1761 58.8465C89.6964 58.2924 90.5884 57.7384 90.6256 57.1474C90.6999 56.5564 89.8822 55.8915 89.1389 54.8942Z" fill="white"/>
<path d="M67.2481 58.4402C58.1795 57.1474 51.9727 63.242 53.2735 72.1438C52.8275 71.8483 52.4559 71.7006 52.1957 71.442C49.0737 68.3763 45.9889 65.2736 42.8669 62.2078C42.012 61.3583 41.7891 60.7673 42.7925 59.8069C46.7322 56.0024 50.6347 52.124 54.5 48.2456C55.5035 47.2114 56.1353 47.1745 57.176 48.2456C60.075 51.2745 63.1226 54.1556 66.096 57.1105C66.4305 57.406 66.7278 57.8123 67.2481 58.4402ZM54.277 57.2583C53.2363 56.4087 52.5673 55.4853 52.0842 55.5592C51.4152 55.67 50.8577 56.5934 50.263 57.1474C50.8205 57.7015 51.3037 58.588 51.9355 58.6988C52.4559 58.7727 53.162 57.9601 54.277 57.2583Z" fill="white"/>
<path d="M52.7903 43.9609C53.3478 44.4411 53.9425 44.9212 54.4628 45.4014C49.594 50.2402 44.9853 54.7834 40.1537 59.5483C39.7449 58.9942 39.2617 58.3663 38.9644 57.96C43.4987 53.3798 48.1073 48.7257 52.7903 43.9609Z" fill="white"/>
<path d="M105.529 54.7835C104.935 55.5592 104.489 56.1132 103.931 56.852C103.076 56.0394 102.445 55.4853 101.85 54.8943C98.1332 51.2006 94.4537 47.5069 90.6999 43.8502C89.9194 43.1114 89.7707 42.5574 90.6256 41.7448C91.3689 41.006 91.9264 41.043 92.6325 41.7448C96.7952 45.9186 100.995 50.0556 105.195 54.2294C105.343 54.3403 105.418 54.5988 105.529 54.7835Z" fill="white"/>
<path d="M102.556 57.7384C100.884 59.9916 100.847 59.9916 99.1369 58.2925C95.3831 54.5618 91.6293 50.7943 87.8383 47.1006C87.0949 46.3988 86.5746 45.8078 87.5038 44.8105C88.4701 43.7763 89.0648 44.3303 89.7709 45.0321C94.0079 49.2799 98.2449 53.4537 102.556 57.7384Z" fill="white"/>
<path d="M51.2292 42.5942C46.5462 47.2114 41.9376 51.7177 37.2917 56.2978C35.2104 55.1159 35.1733 54.8942 36.9201 53.1582C40.5624 49.5384 44.2047 45.9555 47.8099 42.3357C49.5939 40.5627 49.5939 40.5627 51.2292 42.5942Z" fill="white"/>
<path d="M89.139 54.8943C89.8452 55.9286 90.6629 56.5565 90.6257 57.1475C90.5885 57.7385 89.6965 58.2925 89.1762 58.8466C88.5815 58.2925 87.6152 57.8124 87.5037 57.1475C87.4294 56.6304 88.3585 55.9286 89.139 54.8943Z" fill="white"/>
<path d="M54.2767 57.2582C53.1617 57.96 52.4927 58.7727 51.8981 58.6619C51.2662 58.588 50.7831 57.6646 50.2256 57.1105C50.8203 56.5564 51.3777 55.633 52.0467 55.5222C52.5671 55.4853 53.2361 56.4456 54.2767 57.2582Z" fill="white"/>
<path d="M10.5189 91.0054C9.75535 91.0054 9.07759 91.1555 8.48563 91.4558C7.90225 91.7475 7.40895 92.1722 7.00573 92.7298C6.61109 93.2875 6.31082 93.9609 6.10492 94.7502C5.89902 95.5395 5.79607 96.4274 5.79607 97.414C5.79607 98.7438 5.95907 99.8805 6.28508 100.824C6.61967 101.759 7.13442 102.476 7.82933 102.973C8.52424 103.462 9.42076 103.707 10.5189 103.707C11.2824 103.707 12.046 103.621 12.8095 103.449C13.5816 103.278 14.4181 103.033 15.3189 102.716V106.062C14.4867 106.405 13.6674 106.649 12.861 106.795C12.0546 106.95 11.1495 107.027 10.1457 107.027C8.20681 107.027 6.61109 106.628 5.35853 105.83C4.11456 105.024 3.1923 103.9 2.59176 102.459C1.99122 101.009 1.69095 99.3186 1.69095 97.3883C1.69095 95.9642 1.88398 94.6601 2.27004 93.4762C2.6561 92.2923 3.22232 91.2671 3.96871 90.4006C4.7151 89.5341 5.63735 88.8649 6.73549 88.3931C7.83362 87.9212 9.09475 87.6853 10.5189 87.6853C11.454 87.6853 12.3891 87.8054 13.3243 88.0456C14.268 88.2772 15.1688 88.599 16.0267 89.0108L14.7398 92.2537C14.0363 91.9191 13.3286 91.6274 12.6165 91.3786C11.9044 91.1298 11.2052 91.0054 10.5189 91.0054ZM24.919 92.0864C26.8493 92.0864 28.3292 92.5068 29.3587 93.3475C30.3882 94.1883 30.9029 95.4666 30.9029 97.1824V106.77H28.1619L27.4027 104.814H27.2997C26.8879 105.328 26.4675 105.749 26.0386 106.075C25.6096 106.401 25.1163 106.641 24.5587 106.795C24.001 106.95 23.3233 107.027 22.5254 107.027C21.6761 107.027 20.9125 106.864 20.2348 106.538C19.5656 106.212 19.038 105.714 18.6519 105.045C18.2659 104.367 18.0728 103.51 18.0728 102.471C18.0728 100.944 18.609 99.8205 19.6814 99.0998C20.7538 98.3706 22.3624 97.9674 24.5072 97.8902L27.0037 97.813V97.1824C27.0037 96.4274 26.8064 95.8741 26.4118 95.5223C26.0171 95.1706 25.4681 94.9947 24.7646 94.9947C24.0697 94.9947 23.3876 95.0934 22.7184 95.2907C22.0493 95.488 21.3801 95.7368 20.7109 96.0371L19.4112 93.3861C20.1747 92.9829 21.0283 92.6655 21.9721 92.4338C22.9243 92.2022 23.9066 92.0864 24.919 92.0864ZM27.0037 100.104L25.4852 100.155C24.2155 100.189 23.3318 100.417 22.8343 100.837C22.3452 101.257 22.1007 101.811 22.1007 102.497C22.1007 103.098 22.2766 103.527 22.6284 103.784C22.9801 104.033 23.4391 104.157 24.0053 104.157C24.8461 104.157 25.5538 103.908 26.1286 103.411C26.712 102.913 27.0037 102.205 27.0037 101.288V100.104ZM42.9867 92.1121C43.184 92.1121 43.4113 92.125 43.6687 92.1507C43.9347 92.1679 44.1491 92.1936 44.3122 92.2279L44.0162 95.9084C43.8875 95.8655 43.703 95.8355 43.4628 95.8183C43.2312 95.7926 43.0296 95.7797 42.858 95.7797C42.3518 95.7797 41.8585 95.844 41.3781 95.9727C40.9062 96.1014 40.4816 96.3116 40.1041 96.6033C39.7266 96.8864 39.4263 97.2639 39.2033 97.7358C38.9888 98.199 38.8815 98.7695 38.8815 99.4473V106.77H34.9566V92.3824H37.9293L38.5084 94.8017H38.7014C38.9845 94.3127 39.3362 93.8666 39.7566 93.4633C40.1856 93.0515 40.6703 92.7255 41.2108 92.4853C41.7599 92.2365 42.3518 92.1121 42.9867 92.1121ZM69.6893 97.1824C69.6893 99.3014 69.2818 101.073 68.4667 102.497C67.6603 103.913 66.4892 104.981 64.9536 105.701C63.4179 106.414 61.5691 106.77 59.4072 106.77H54.0795V87.9555H59.9863C61.9595 87.9555 63.671 88.3073 65.1209 89.0108C66.5707 89.7057 67.6946 90.7395 68.4925 92.1121C69.2903 93.4762 69.6893 95.1663 69.6893 97.1824ZM65.5455 97.2853C65.5455 95.8955 65.3396 94.7545 64.9278 93.8623C64.5246 92.9615 63.9241 92.2966 63.1262 91.8676C62.3369 91.4387 61.3589 91.2242 60.1922 91.2242H58.0688V103.475H59.7804C61.7278 103.475 63.1734 102.956 64.1171 101.918C65.0694 100.88 65.5455 99.3358 65.5455 97.2853ZM86.3543 99.5502C86.3543 100.751 86.1913 101.815 85.8653 102.742C85.5478 103.668 85.0803 104.453 84.4626 105.097C83.8534 105.732 83.1156 106.212 82.2491 106.538C81.3912 106.864 80.4218 107.027 79.3408 107.027C78.3285 107.027 77.3976 106.864 76.5483 106.538C75.7075 106.212 74.974 105.732 74.3477 105.097C73.7301 104.453 73.2496 103.668 72.9065 102.742C72.5719 101.815 72.4046 100.751 72.4046 99.5502C72.4046 97.9545 72.6877 96.6033 73.2539 95.4966C73.8201 94.3899 74.6266 93.5491 75.6732 92.9743C76.7199 92.3995 77.9681 92.1121 79.418 92.1121C80.765 92.1121 81.9575 92.3995 82.9955 92.9743C84.0422 93.5491 84.8615 94.3899 85.4535 95.4966C86.054 96.6033 86.3543 97.9545 86.3543 99.5502ZM76.4067 99.5502C76.4067 100.494 76.5097 101.288 76.7156 101.931C76.9215 102.574 77.2432 103.059 77.6807 103.385C78.1183 103.711 78.6888 103.874 79.3923 103.874C80.0872 103.874 80.6491 103.711 81.0781 103.385C81.5156 103.059 81.8331 102.574 82.0304 101.931C82.2363 101.288 82.3392 100.494 82.3392 99.5502C82.3392 98.598 82.2363 97.8087 82.0304 97.1824C81.8331 96.5475 81.5156 96.0714 81.0781 95.754C80.6406 95.4365 80.07 95.2778 79.3666 95.2778C78.3285 95.2778 77.5735 95.6339 77.1017 96.3459C76.6384 97.058 76.4067 98.1261 76.4067 99.5502ZM95.4396 107.027C94.0154 107.027 92.8015 106.77 91.7977 106.255C90.794 105.732 90.0304 104.925 89.5071 103.836C88.9838 102.746 88.7221 101.352 88.7221 99.6532C88.7221 97.8945 89.0181 96.4617 89.61 95.355C90.2106 94.2397 91.0385 93.4204 92.0937 92.8971C93.1575 92.3738 94.3886 92.1121 95.787 92.1121C96.7822 92.1121 97.6401 92.2108 98.3608 92.4081C99.09 92.5968 99.7249 92.8242 100.265 93.0901L99.1072 96.1272C98.4895 95.8784 97.9147 95.6768 97.3828 95.5223C96.8508 95.3593 96.3189 95.2778 95.787 95.2778C95.1007 95.2778 94.5302 95.4408 94.0755 95.7668C93.6208 96.0843 93.2819 96.5647 93.0589 97.2081C92.8358 97.8516 92.7243 98.658 92.7243 99.6275C92.7243 100.58 92.8444 101.369 93.0846 101.995C93.3248 102.622 93.6723 103.089 94.127 103.398C94.5817 103.698 95.135 103.848 95.787 103.848C96.6021 103.848 97.327 103.741 97.9618 103.527C98.5967 103.304 99.2144 102.995 99.8149 102.6V105.959C99.2144 106.336 98.5838 106.607 97.9232 106.77C97.2712 106.941 96.4433 107.027 95.4396 107.027ZM109.222 103.9C109.651 103.9 110.067 103.857 110.47 103.771C110.882 103.685 111.29 103.578 111.693 103.449V106.371C111.272 106.559 110.749 106.714 110.123 106.834C109.505 106.963 108.827 107.027 108.09 107.027C107.232 107.027 106.459 106.89 105.773 106.615C105.095 106.332 104.559 105.847 104.165 105.161C103.779 104.466 103.585 103.501 103.585 102.266V95.3293H101.707V93.6692L103.869 92.3566L105.001 89.3196H107.51V92.3824H111.538V95.3293H107.51V102.266C107.51 102.815 107.665 103.226 107.974 103.501C108.291 103.767 108.707 103.9 109.222 103.9ZM127.689 99.5502C127.689 100.751 127.526 101.815 127.2 102.742C126.882 103.668 126.415 104.453 125.797 105.097C125.188 105.732 124.45 106.212 123.583 106.538C122.726 106.864 121.756 107.027 120.675 107.027C119.663 107.027 118.732 106.864 117.883 106.538C117.042 106.212 116.308 105.732 115.682 105.097C115.064 104.453 114.584 103.668 114.241 102.742C113.906 101.815 113.739 100.751 113.739 99.5502C113.739 97.9545 114.022 96.6033 114.588 95.4966C115.154 94.3899 115.961 93.5491 117.008 92.9743C118.054 92.3995 119.302 92.1121 120.752 92.1121C122.099 92.1121 123.292 92.3995 124.33 92.9743C125.377 93.5491 126.196 94.3899 126.788 95.4966C127.388 96.6033 127.689 97.9545 127.689 99.5502ZM117.741 99.5502C117.741 100.494 117.844 101.288 118.05 101.931C118.256 102.574 118.578 103.059 119.015 103.385C119.453 103.711 120.023 103.874 120.727 103.874C121.422 103.874 121.983 103.711 122.412 103.385C122.85 103.059 123.167 102.574 123.365 101.931C123.571 101.288 123.674 100.494 123.674 99.5502C123.674 98.598 123.571 97.8087 123.365 97.1824C123.167 96.5475 122.85 96.0714 122.412 95.754C121.975 95.4365 121.404 95.2778 120.701 95.2778C119.663 95.2778 118.908 95.6339 118.436 96.3459C117.973 97.058 117.741 98.1261 117.741 99.5502ZM138.962 92.1121C139.159 92.1121 139.386 92.125 139.644 92.1507C139.91 92.1679 140.124 92.1936 140.287 92.2279L139.991 95.9084C139.862 95.8655 139.678 95.8355 139.438 95.8183C139.206 95.7926 139.005 95.7797 138.833 95.7797C138.327 95.7797 137.833 95.844 137.353 95.9727C136.881 96.1014 136.456 96.3116 136.079 96.6033C135.702 96.8864 135.401 97.2639 135.178 97.7358C134.964 98.199 134.856 98.7695 134.856 99.4473V106.77H130.932V92.3824H133.904L134.483 94.8017H134.676C134.959 94.3127 135.311 93.8666 135.732 93.4633C136.161 93.0515 136.645 92.7255 137.186 92.4853C137.735 92.2365 138.327 92.1121 138.962 92.1121Z" fill="white"/>
</svg>
